<svg width="25" height="25" viewBox="0 0 25 25" fill="none" xmlns="http://www.w3.org/2000/svg">
<path d="M23.6796 7.34384C23.5478 6.85038 23.3443 6.37703 23.0751 5.93759C22.8165 5.48044 22.4858 5.06411 22.0947 4.70321C21.5277 4.1628 20.8562 3.73295 20.1177 3.43759C18.6311 2.85413 16.9639 2.85413 15.4773 3.43759C14.7793 3.72015 14.1379 4.11668 13.582 4.60946L13.5003 4.70321L12.4382 5.71884L11.3762 4.70321L11.2945 4.60946C10.7386 4.11668 10.0972 3.72015 9.39914 3.43759C7.91252 2.85413 6.24541 2.85413 4.75879 3.43759C4.02023 3.73295 3.34876 4.1628 2.78174 4.70321C2.00622 5.42482 1.45724 6.33949 1.19684 7.34384C1.0583 7.85387 0.992353 8.37944 1.00077 8.90634C1.00077 9.40165 1.06612 9.8954 1.19684 10.3751C1.33381 10.8595 1.53131 11.3264 1.78505 11.7657C2.05908 12.2173 2.3942 12.6323 2.78174 13.0001L12.4382 22.2345L22.0947 13.0001C22.482 12.636 22.8137 12.2188 23.0751 11.7657C23.6058 10.8987 23.8823 9.91094 23.8757 8.90634C23.8842 8.37944 23.8182 7.85386 23.6796 7.34384Z" fill="#574AE8"/>
</svg>
